<?xml version="1.0" encoding="UTF-8"?>
<svg xmlns="http://www.w3.org/2000/svg" xmlns:xlink="http://www.w3.org/1999/xlink" viewBox="0 0 32 32" width="32px" height="32px">
<g id="surface15746937">
<rect x="0" y="0" width="32" height="32" style="fill:rgb(15.686275%,17.254902%,20.392157%);fill-opacity:1;stroke:none;"/>
<path style=" stroke:none;fill-rule:nonzero;fill:rgb(100%,100%,100%);fill-opacity:1;" d="M 16 3.933594 L 4.363281 8.167969 L 6.449219 23.839844 L 16 29.144531 L 25.550781 23.835938 L 27.636719 8.167969 Z M 16 6.066406 L 25.441406 9.5 L 23.699219 22.578125 L 16 26.855469 L 8.300781 22.578125 L 6.554688 9.5 Z M 16 8 L 10 22 L 12 22 L 13.289062 19 L 18.710938 19 L 20 22 L 22 22 Z M 16 12.550781 L 16.019531 12.609375 L 16.722656 14.359375 L 17.847656 17 L 14.152344 17 L 15.277344 14.359375 L 15.980469 12.609375 Z M 16 12.550781 "/>
</g>
</svg>
